<svg xmlns="http://www.w3.org/2000/svg" aria-hidden="true" style="width:0;height:0;position:absolute;overflow:hidden"><defs><symbol id="icon-user" viewBox="0 0 32 32"><path d="M5.333 29.333a10.662 10.662 0 0 1 18.208-7.543c2 2 3.124 4.714 3.124 7.543H5.332zm10.667-12c-4.42 0-8-3.58-8-8s3.58-8 8-8 8 3.58 8 8-3.58 8-8 8z"/></symbol><symbol id="icon-ukraine-emblem" viewBox="0 0 20 32"><path d="M9.005 30.888a8.64 8.64 0 0 1-3.414-5.351H0V2.42c2.991 1.443 5.153 4.599 5.388 7.876l.846 6.493-.407-.045c-.893 0-1.676.812-1.676 1.608 0 .752.595 1.383 1.378 1.548l1.018.226c1.676-3.051 2.631-6.042 2.631-8.973 0-2.645-.36-5.291-.423-7.996 0-1.202.486-2.3 1.253-3.156.783.857 1.253 1.954 1.253 3.156 0 2.705-.423 5.351-.423 7.996 0 2.931.955 5.922 2.631 8.973l1.018-.226c.783-.165 1.378-.812 1.378-1.548 0-.812-.783-1.608-1.676-1.608l-.423.06.846-6.493c.423-3.277 2.396-6.448 5.388-7.876v23.117h-5.576c-.423 2.179-1.613 4.148-3.414 5.351-.423.286-.783.631-1.018 1.097-.219-.466-.579-.812-.987-1.112zM2.647 17.556c.235-.857.893-1.608 1.738-2.074l-.658-5.351a8.288 8.288 0 0 0-2.036-4.374v11.784h.955v.015zm2.819 6.373c0-.812.125-1.548.298-2.3l-.783-.18c-1.143-.346-2.036-1.203-2.334-2.3h-.955v4.78h3.774zm3.712 0c0-.977-.783-1.834-1.801-1.954-.172.631-.298 1.263-.298 1.954h2.099zm0 1.623H7.314c.298 1.263.955 2.42 1.864 3.397v-3.397zm2.631-5.005c-.72-1.262-1.378-2.585-1.801-3.968-.423 1.383-1.081 2.706-1.801 3.968.72.165 1.316.631 1.801 1.157.486-.526 1.081-.992 1.801-1.157zm1.143 3.382c0-.691-.125-1.323-.297-1.954-1.018.12-1.801.977-1.801 1.954h2.099zm-.235 1.623h-1.864v3.397c.908-.992 1.566-2.134 1.864-3.397zm5.623-1.623v-4.78h-.955c-.298 1.097-1.206 1.954-2.334 2.3l-.783.18c.172.752.298 1.488.298 2.3h3.774zm0-6.373V5.757c-1.081 1.202-1.864 2.706-2.036 4.374l-.658 5.351c.846.466 1.504 1.203 1.739 2.074h.955z"/></symbol><symbol id="icon-switcher-light" viewBox="0 0 50 32"><path d="M12.361 2.528C8.612 3.161 5.38 5.502 3.7 8.801c-.897 1.761-1.308 3.499-1.303 5.51.004 1.856.344 3.361 1.124 4.99 1.702 3.552 4.766 5.871 8.779 6.644.715.137 1.647.147 13.709.147 12.229 0 12.991-.008 13.813-.154 2.394-.422 4.532-1.486 6.229-3.102 1.779-1.694 2.937-3.768 3.492-6.253.161-.725.191-1.097.191-2.355 0-1.655-.141-2.529-.635-3.931-1.261-3.573-4.225-6.38-7.853-7.437-1.608-.468-1.109-.454-15.237-.446-10.095.007-13.165.032-13.647.114zm4.24 1.321c3.998.914 7.076 4.002 8.02 8.049.186.8.215 1.103.213 2.33-.001 1.505-.097 2.155-.495 3.36-1.186 3.584-4.231 6.29-7.995 7.102-.99.213-3.241.213-4.231 0-2.132-.46-3.864-1.403-5.403-2.943-1.217-1.217-1.992-2.436-2.542-3.993-.441-1.25-.553-1.966-.553-3.526s.113-2.276.553-3.526c1.336-3.788 4.748-6.548 8.716-7.049.979-.123 2.715-.032 3.718.197z"/></symbol><symbol id="icon-switcher-dark" viewBox="0 0 52 32"><path d="M10.821 2.402c-2.891.361-5.175 1.401-7.093 3.227a12.017 12.017 0 0 0-3.525 6.428c-.209 1.047-.209 3.258 0 4.305.494 2.487 1.649 4.616 3.435 6.338 1.73 1.669 3.678 2.687 6.074 3.174.711.146 1.633.155 14.016.155 12.453 0 13.299-.009 13.993-.156 1.152-.245 1.887-.482 2.775-.897 2.437-1.138 4.455-3.093 5.638-5.465.852-1.708 1.234-3.349 1.234-5.312.002-5.619-3.823-10.325-9.432-11.605l-.866-.197-12.994-.014c-7.145-.007-13.111.001-13.254.019zm27.354 1.497c1.122.286 2.287.799 3.285 1.447.909.591 2.381 2.08 3.004 3.039 3.493 5.376 1.496 12.587-4.263 15.39-1.71.833-3.294 1.153-5.211 1.052-2.81-.146-5.192-1.244-7.159-3.302-1.94-2.031-2.892-4.44-2.892-7.315 0-1.843.315-3.211 1.105-4.78 1.538-3.063 4.436-5.172 7.896-5.747 1.158-.192 3.001-.098 4.235.216z"/></symbol><symbol id="icon-logo" viewBox="0 0 32 32"><path fill="#f6f6f6" d="m0 0 16.343 16.171L32 32V0H0z" style="fill:var(--color1,#f6f6f6)"/><path fill="#f6f6f6" d="M4.457 4.229 16.4 16.058l11.257 11.486h-23.2V4.23z" style="fill:var(--color1,#f6f6f6)"/><path fill="#4f2ee8" d="M27.733 27.618 15.79 15.789 4.533 4.303h23.2v23.314z" style="fill:var(--color2,#4f2ee8)"/><path fill="#4f2ee8" d="m9.257 9.029 13.6 13.6h-13.6v-13.6z" style="fill:var(--color2,#4f2ee8)"/><path fill="#f6f6f6" d="m9.257 9.029 13.6 13.6v-13.6h-13.6z" style="fill:var(--color1,#f6f6f6)"/></symbol><symbol id="icon-x-close" viewBox="0 0 32 32"><path d="M7.626 6.245c-.291.085-.749.427-1.029.774-.432.533-.509 1.054-.24 1.616.088.184 1.011 1.143 3.665 3.806l3.547 3.56-3.551 3.56c-3.907 3.918-3.806 3.799-3.805 4.44 0 .449.157.77.586 1.199.429.43.75.586 1.199.586.634 0 .526.093 4.44-3.808l3.56-3.547 3.56 3.547c3.914 3.901 3.806 3.808 4.44 3.808.449 0 .77-.157 1.199-.586.43-.429.586-.75.586-1.199 0-.634.093-.526-3.808-4.44l-3.547-3.56 3.547-3.56c3.901-3.914 3.808-3.806 3.808-4.44 0-.449-.157-.77-.586-1.199-.429-.43-.75-.586-1.199-.586-.634 0-.526-.093-4.44 3.808l-3.56 3.547-3.56-3.547c-2.721-2.712-3.619-3.576-3.814-3.67-.29-.138-.728-.186-1-.109z"/></symbol><symbol id="icon-lock" viewBox="0 0 32 32"><path d="M14.751 2.963c-2.978.502-5.406 2.654-6.24 5.535-.257.886-.297 1.331-.297 3.257v1.783l-.36.034c-1.35.129-2.006.345-2.875.944-.793.547-1.498 1.496-1.797 2.417-.256.792-.275 1.098-.275 4.4 0 3.301.019 3.607.275 4.4.304.939 1.032 1.904 1.858 2.462.658.445 1.16.647 2 .803.472.088 1.093.095 8.96.095s8.488-.007 8.96-.095c.84-.157 1.342-.359 2-.803.826-.558 1.554-1.522 1.858-2.462.256-.793.275-1.099.275-4.4 0-3.302-.019-3.608-.275-4.4-.304-.941-1.032-1.904-1.858-2.463-.824-.557-1.499-.773-2.814-.898l-.36-.034v-1.783c0-1.926-.04-2.371-.297-3.257A7.813 7.813 0 0 0 19.868 3.9a7.692 7.692 0 0 0-2.67-.939c-.611-.098-1.855-.097-2.448.002zm2.369 2.299c1.75.345 3.32 1.665 3.997 3.36.363.909.399 1.194.401 3.165l.002 1.734H10.48l.002-1.734c.002-1.97.038-2.256.401-3.165.871-2.181 3.074-3.599 5.383-3.465.25.015.634.062.854.105zm6.485 10.576c.511.027 1.061.087 1.253.136.855.221 1.616.982 1.835 1.835.247.96.247 6.089 0 7.048-.219.854-.981 1.615-1.835 1.835-.601.155-2.011.185-8.857.185s-8.256-.03-8.857-.185c-.855-.221-1.616-.982-1.835-1.835-.248-.96-.247-6.09 0-7.048.221-.856.979-1.614 1.839-1.838.191-.049.683-.107 1.094-.129 1.091-.057 14.294-.062 15.365-.005z"/></symbol><symbol id="icon-envelope" viewBox="0 0 32 32"><path d="M6.4 4.248c-.475.049-1.258.195-1.51.282-.931.32-1.833.997-2.374 1.782-.501.726-.687 1.19-.861 2.142-.104.568-.107.799-.106 7.36 0 6.487.016 7.271.161 8.026a4.847 4.847 0 0 0 1.995 3.023c.658.445 1.16.646 2 .802.474.089 1.15.095 10.294.095s9.819-.006 10.294-.095c.869-.162 1.357-.362 2.061-.848a4.808 4.808 0 0 0 1.935-2.977c.145-.755.161-1.539.161-8.026.001-6.561-.002-6.792-.106-7.36-.127-.694-.222-1.007-.439-1.44-.378-.759-.918-1.394-1.551-1.831-.682-.47-1.173-.677-2.008-.845-.417-.085-1.216-.093-10.106-.101-5.31-.005-9.737 0-9.84.01zm18.537 2.256c.512.027 1.062.087 1.254.137.845.218 1.614.981 1.83 1.811.065.251.069.334.018.383-.198.19-11.107 7.776-11.387 7.919-.265.135-.401.17-.651.17s-.386-.035-.651-.17c-.28-.143-11.19-7.729-11.387-7.919-.05-.049-.047-.131.018-.383.217-.834.984-1.593 1.834-1.814.191-.05.682-.109 1.093-.13 1.091-.057 16.959-.061 18.031-.005zm-17.84 7.322c1.77 1.24 3.216 2.273 3.211 2.298-.005.024-1.456 1.351-3.225 2.949-3.099 2.799-3.218 2.899-3.25 2.755-.051-.229-.053-10.255-.001-10.255.025 0 1.495 1.014 3.265 2.253zm21.113 2.748c-.002 2.75-.019 5.09-.04 5.202l-.037.202-3.217-2.905c-1.769-1.598-3.221-2.925-3.225-2.949-.008-.048 6.4-4.551 6.477-4.551.025 0 .043 2.249.042 5zm-14.972 1.541c1.325.896 1.801 1.082 2.762 1.082.962 0 1.438-.186 2.767-1.085.507-.344.945-.618.971-.609s1.789 1.587 3.914 3.507l3.867 3.491-.2.206a2.612 2.612 0 0 1-1.129.65c-.615.159-2.048.185-10.191.185s-9.576-.026-10.191-.185a2.598 2.598 0 0 1-1.129-.651l-.2-.206 3.88-3.504c2.134-1.927 3.897-3.504 3.919-3.504s.453.28.959.622z"/></symbol><symbol id="icon-book" viewBox="0 0 34 32"><path d="M32.716 8.869a15.813 15.813 0 0 0-2.24-.953v18.801a15.321 15.321 0 0 0-5.333-.969c-2.895 0-5.76.844-8.381 2.469V9.306c-2.469-1.454-5.318-2.313-8.381-2.313-2.728 0-5.303.688-7.573 1.875-.503.25-.808.797-.808 1.375v18.88c0 .906.716 1.547 1.524 1.547.244 0 .488-.063.731-.188 1.844-.985 3.916-1.61 6.126-1.61 3.154 0 6.065 1.282 8.381 3.126 2.316-1.844 5.227-3.126 8.381-3.126 2.21 0 4.282.625 6.126 1.625.244.125.488.188.731.188.792 0 1.524-.641 1.524-1.547V10.243c0-.578-.305-1.125-.808-1.375zM13.714 26.717c-1.737-.641-3.52-.969-5.333-.969s-3.596.328-5.333.969V11.229a13.263 13.263 0 0 1 5.333-1.11c1.829 0 3.642.391 5.333 1.125v15.473zM27.429 1.524 19.81 9.338v14.847l7.619-7.033V1.523z"/></symbol><symbol id="icon-arrow-up" viewBox="0 0 55 32"><path d="M1.091 25.309 25.527.8c.291-.291.606-.496.945-.617.339-.122.703-.183 1.091-.183s.752.061 1.091.183c.339.12.655.326.945.617l24.509 24.509c.679.679 1.018 1.527 1.018 2.545s-.364 1.891-1.091 2.618c-.727.727-1.576 1.091-2.545 1.091s-1.818-.364-2.545-1.091L27.563 9.09 6.181 30.472c-.679.679-1.515 1.018-2.508 1.018-.995 0-1.856-.364-2.583-1.091s-1.091-1.576-1.091-2.545c0-.97.364-1.818 1.091-2.545z"/></symbol><symbol id="icon-arrow-triangle-down" viewBox="0 0 28 32"><path d="M5.898 12h16.513l-7.423 8.391c-.221.25-.521.39-.834.39s-.613-.14-.834-.39L5.898 12z"/></symbol><symbol id="icon-cart" viewBox="0 0 32 32"><path d="M25.334 9.333h-4V8a5.332 5.332 0 1 0-10.666 0v1.333h-4a1.335 1.335 0 0 0-1.334 1.334v14.667a4.003 4.003 0 0 0 4 4h13.333a4.003 4.003 0 0 0 4-4V10.667a1.335 1.335 0 0 0-1.334-1.334zM13.334 8a2.668 2.668 0 0 1 5.334 0v1.333h-5.333V8zM24 25.333a1.335 1.335 0 0 1-1.334 1.334H9.333a1.335 1.335 0 0 1-1.334-1.334V12h2.667v1.333a1.335 1.335 0 0 0 2.277.943c.25-.251.39-.589.39-.943V12h5.333v1.333a1.335 1.335 0 0 0 2.277.943c.25-.251.391-.589.391-.943V12h2.667v13.333z"/></symbol><symbol id="icon-bookshelf" viewBox="0 0 176 32"><path d="M22.176 8.533c0-4.731-3.497-7.406-9.545-7.406H0v29.417h13.33c6.089 0 9.998-2.921 9.998-8.599 0-4.402-2.633-6.665-5.719-7.2v-.082c2.427-.823 4.567-2.51 4.567-6.13zm-17.28 4.772V5.282h7.858c2.921 0 4.526 1.44 4.526 4.032s-1.317 3.991-4.814 3.991h-7.57zm0 3.662h8.599c3.086 0 4.937 1.687 4.937 4.69 0 2.757-1.275 4.731-5.472 4.731H4.896v-9.422zM35.89 31.161c-6.583 0-10.574-4.567-10.574-11.109S29.307 8.943 35.89 8.943s10.574 4.567 10.574 11.109-3.991 11.109-10.574 11.109zm0-3.538c4.114 0 6.254-3.25 6.254-7.57 0-4.361-2.139-7.57-6.254-7.57s-6.254 3.209-6.254 7.57c0 4.32 2.139 7.57 6.254 7.57zm23.022 3.538c-6.583 0-10.574-4.567-10.574-11.109S52.329 8.943 58.912 8.943s10.574 4.567 10.574 11.109-3.991 11.109-10.574 11.109zm0-3.538c4.114 0 6.254-3.25 6.254-7.57 0-4.361-2.139-7.57-6.254-7.57s-6.254 3.209-6.254 7.57c0 4.32 2.139 7.57 6.254 7.57zm13.56-26.496v29.417h4.32v-7.611l2.921-2.757 6.624 10.368h5.184l-8.846-13.207 7.982-7.817H85.35l-8.558 8.434V1.127h-4.32zm29.463 16.704c-3.045-.699-5.39-.864-5.39-3.003 0-1.481 1.399-2.469 3.991-2.469 3.374 0 4.197 1.687 4.485 3.333h4.197c-.288-3.662-3.003-6.747-8.722-6.747-5.266 0-8.311 2.757-8.311 6.213 0 4.773 4.526 5.431 7.858 6.213 3.086.741 5.595.946 5.595 3.579 0 1.317-1.275 2.798-4.279 2.798-4.443 0-5.431-1.934-5.637-4.197h-4.197c.206 4.443 3.127 7.611 9.915 7.611 5.102 0 8.558-2.51 8.558-6.542 0-5.019-4.197-5.883-8.064-6.789zm22.188-8.887c-3.538 0-5.719 1.646-6.83 3.291h-.082V1.126h-4.32v29.417h4.32V17.748c0-3.127 2.263-5.143 5.431-5.143 3.003 0 4.197 1.81 4.197 4.649v13.289h4.361V16.02c0-4.814-3.086-7.077-7.077-7.077zm20.325 18.679c-3.826 0-6.089-2.921-6.089-6.459h16.128c0-7.488-3.333-12.219-10.121-12.219-6.336 0-10.327 4.279-10.327 11.109 0 6.583 3.991 11.109 10.533 11.109 5.39 0 8.517-3.045 9.586-7.035h-4.32c-.37 1.275-1.81 3.497-5.39 3.497zm-.082-15.264c3.497 0 5.801 2.345 5.801 5.595h-11.808c0-3.25 2.51-5.595 6.007-5.595zm13.165-11.232v29.417h4.361V1.127h-4.361zm18.472 3.538V1.127a15.12 15.12 0 0 0-2.88-.288c-3.456 0-5.349 1.563-5.349 6.007V9.52h-3.003v3.538h3.003v17.486h4.361V13.058h3.867V9.52h-3.867V7.216c0-2.386 1.07-2.674 3.867-2.551z"/></symbol><symbol id="icon-arrow-right" viewBox="0 0 32 32"><path d="M0 16v16h32V0H0v16zm19.28-9.507c.208.102 1.165 1.026 4.298 4.139 2.218 2.205 4.11 4.067 4.208 4.139.256.187.544.84.544 1.229s-.288 1.042-.544 1.229c-.098.072-1.99 1.934-4.208 4.139-4.403 4.378-4.31 4.296-4.91 4.296-.778 0-1.664-.886-1.664-1.664 0-.586.022-.613 3.04-3.64l2.752-2.758-17.968-.029-.274-.123c-.563-.254-.79-.672-.79-1.45s.227-1.195.79-1.45l.274-.123 17.968-.029-2.752-2.758c-3.018-3.027-3.04-3.054-3.04-3.64 0-.386.176-.747.546-1.117.574-.574 1.112-.694 1.731-.39z"/></symbol><symbol id="icon-trash" viewBox="0 0 32 32"><path d="M10.853 1.248c-.366.165-.56.53-.558 1.04.005.537.176.848.558 1.024.203.094.473.098 5.147.098s4.944-.005 5.147-.098c.389-.178.553-.489.555-1.045.002-.501-.226-.896-.599-1.038-.103-.039-1.726-.055-5.12-.055-4.034.002-5.001.016-5.131.073zM1.851 5.783c-.304.082-.544.295-.633.56-.082.247-.082.777.002 1.029.08.242.363.498.631.571.112.032.699.057 1.31.057.889 0 1.106.014 1.106.071 0 .121 1.008 15.216 1.065 15.982.206 2.645.475 3.573 1.369 4.688a5.573 5.573 0 0 0 2.174 1.639c.709.286 1.337.389 2.805.453 1.63.073 9.218.03 9.84-.055 1.634-.224 2.855-.882 3.778-2.037.894-1.115 1.163-2.043 1.369-4.688.057-.766 1.065-15.861 1.065-15.982 0-.057.217-.071 1.106-.071.61 0 1.198-.025 1.31-.057.267-.073.551-.329.631-.571.085-.254.085-.782 0-1.035-.091-.274-.368-.501-.697-.571-.43-.091-27.888-.075-28.231.018zm23.566 2.578c-.018.197-.261 3.803-.539 8.011-.517 7.813-.606 8.971-.745 9.627-.24 1.141-1.166 2.11-2.293 2.4-.555.142-1.918.185-5.84.185s-5.285-.043-5.84-.185c-.535-.137-.969-.393-1.415-.827-.683-.667-.88-1.189-1.038-2.745C7.652 24.269 6.56 8.285 6.56 8.02c0-.011 4.251-.021 9.445-.021h9.447l-.034.361zm-12.978 4.297c-.238.087-.471.32-.555.555-.055.16-.071 1.042-.071 4.334v4.135l.137.263c.185.363.482.517.999.514.208 0 .455-.034.553-.078.224-.096.439-.329.517-.562.087-.258.087-8.343 0-8.599-.137-.411-.51-.633-1.058-.629-.19.002-.425.032-.521.066zm6.041.03c-.258.119-.418.29-.498.533-.087.256-.087 8.341 0 8.599.078.233.293.466.517.562.098.043.345.078.553.078.517.002.814-.151.999-.514l.137-.263v-4.135c0-3.291-.016-4.174-.071-4.334a1.005 1.005 0 0 0-.555-.555c-.274-.101-.834-.085-1.081.03z"/></symbol></defs></svg>