<svg width="22" height="22" viewBox="0 0 22 22" fill="none" xmlns="http://www.w3.org/2000/svg">
<g id="fi-rr-angle-small-left">
<path id="Vector" d="M10.3488 12.2834C10.434 12.3693 10.5354 12.4375 10.6471 12.4841C10.7588 12.5306 10.8786 12.5546 10.9996 12.5546C11.1206 12.5546 11.2404 12.5306 11.3521 12.4841C11.4638 12.4375 11.5652 12.3693 11.6504 12.2834L15.8488 8.07591C15.934 7.98999 16.0354 7.9218 16.1471 7.87526C16.2588 7.82872 16.3786 7.80476 16.4996 7.80476C16.6206 7.80476 16.7404 7.82872 16.8521 7.87526C16.9638 7.9218 17.0652 7.98999 17.1504 8.07591C17.3212 8.24766 17.417 8.47999 17.417 8.72216C17.417 8.96433 17.3212 9.19666 17.1504 9.36841L12.9429 13.5759C12.4273 14.0909 11.7283 14.3802 10.9996 14.3802C10.2708 14.3802 9.57188 14.0909 9.05625 13.5759L4.84875 9.36841C4.6794 9.19767 4.58393 8.96722 4.58292 8.72674C4.58222 8.6061 4.60534 8.48651 4.65096 8.37483C4.69658 8.26314 4.76379 8.16156 4.84875 8.07591C4.93397 7.98999 5.03535 7.9218 5.14705 7.87526C5.25876 7.82872 5.37857 7.80476 5.49958 7.80476C5.62059 7.80476 5.74041 7.82872 5.85211 7.87526C5.96382 7.9218 6.0652 7.98999 6.15042 8.07591L10.3488 12.2834Z" fill="#4F2EE8"/>
</g>
</svg>
